<?xml version="1.0" encoding="UTF-8"?>
<svg xmlns="http://www.w3.org/2000/svg" xmlns:xlink="http://www.w3.org/1999/xlink" width="50" height="50" viewBox="0 0 50 50">
  <defs>
    <clipPath id="clip-bootstrap">
      <rect width="50" height="50"></rect>
    </clipPath>
  </defs>
  <g id="bootstrap" clip-path="url(#clip-bootstrap)">
    <g id="bootstrap-2" data-name="bootstrap" transform="translate(0.164)">
      <path id="Path_47" data-name="Path 47" d="M0,43.41a6.426,6.426,0,0,0,6.426,6.426H43.41a6.426,6.426,0,0,0,6.426-6.426V6.426A6.426,6.426,0,0,0,43.41,0H6.426A6.426,6.426,0,0,0,0,6.426V43.41Z" fill="#563d7c"></path>
      <path id="Path_48" data-name="Path 48" d="M78.71,62.713V55.656h6.212a9.663,9.663,0,0,1,1.712.148,4.272,4.272,0,0,1,1.458.528,2.817,2.817,0,0,1,1.014,1.056,3.509,3.509,0,0,1,.38,1.733,3.192,3.192,0,0,1-1.141,2.747,4.769,4.769,0,0,1-2.916.845ZM72.075,50.5V80.674H86.7a15.427,15.427,0,0,0,3.951-.507A10.568,10.568,0,0,0,94.072,78.6a7.7,7.7,0,0,0,2.388-2.726,9.224,9.224,0,0,0-.486-8.79,7.253,7.253,0,0,0-4.163-2.81,7.521,7.521,0,0,0,3.064-2.493,6.61,6.61,0,0,0,1.035-3.8,8.094,8.094,0,0,0-.7-3.55,5.8,5.8,0,0,0-1.965-2.3A8.481,8.481,0,0,0,90.2,50.88a18.785,18.785,0,0,0-3.93-.38ZM78.71,75.518V67.235h7.226a5.59,5.59,0,0,1,3.466.993,3.9,3.9,0,0,1,1.31,3.317,4.147,4.147,0,0,1-.4,1.944,3.189,3.189,0,0,1-1.078,1.2,4.564,4.564,0,0,1-1.564.634,8.871,8.871,0,0,1-1.86.19h-7.1Z" transform="translate(-58.044 -40.669)" fill="#fff"></path>
    </g>
  </g>
</svg>
