<?xml version="1.0" encoding="UTF-8"?>
<svg xmlns="http://www.w3.org/2000/svg" xmlns:xlink="http://www.w3.org/1999/xlink" width="50" height="50" viewBox="0 0 50 50">
  <defs>
    <clipPath id="clip-jquery">
      <rect width="50" height="50"></rect>
    </clipPath>
  </defs>
  <g id="jquery" clip-path="url(#clip-jquery)">
    <path id="jquery-2" data-name="jquery" d="M4.889,15.309C.463,21.672,1.014,29.95,4.4,36.711c.08.162.165.322.248.481l.158.3.1.175.176.315q.158.278.323.553l.184.3c.122.2.247.392.374.586l.16.246c.176.263.356.525.543.783l.016.02.092.124c.161.222.327.441.494.658l.186.237q.225.282.457.562l.175.209c.208.245.42.488.637.727l.013.013.024.027c.212.231.428.456.647.682l.208.209c.17.171.342.339.517.507l.212.2c.233.22.468.435.708.645l.011.009.123.105c.212.183.427.365.643.543l.267.212q.266.213.536.419l.287.218q.3.22.6.431l.219.155.06.043c.192.132.388.259.584.387l.253.169c.3.19.606.378.915.56l.253.142q.34.2.686.385c.125.067.254.131.38.2.163.085.326.172.492.255l.114.055.2.1c.257.123.517.244.779.36l.165.074q.45.2.908.378l.221.087c.283.109.569.216.857.317l.108.037c.316.11.635.213.956.313l.231.069a9.348,9.348,0,0,0,.987.278c21.409,3.9,27.628-12.865,27.628-12.865-5.223,6.8-14.494,8.6-23.278,6.6-.333-.075-.655-.179-.98-.275L26,44.961q-.476-.146-.944-.307l-.13-.047c-.28-.1-.557-.2-.832-.309l-.234-.092q-.453-.179-.9-.374l-.179-.079c-.255-.116-.507-.232-.758-.353L21.81,43.3c-.2-.1-.392-.2-.586-.3-.13-.069-.262-.133-.391-.2-.238-.127-.47-.259-.7-.394l-.237-.132c-.309-.181-.613-.37-.915-.561l-.247-.165c-.219-.141-.437-.285-.651-.433l-.21-.147q-.311-.22-.616-.445l-.273-.206c-.187-.142-.372-.286-.556-.434l-.248-.2c-.234-.192-.464-.385-.692-.583l-.076-.064c-.246-.216-.488-.438-.727-.661l-.205-.2c-.177-.169-.351-.338-.523-.513l-.2-.2q-.327-.335-.641-.678l-.032-.034c-.222-.242-.438-.49-.651-.74l-.17-.2c-.158-.191-.315-.384-.468-.579l-.171-.214c-.184-.239-.364-.477-.541-.72C6.2,27.635,4.447,18.46,8.344,10.926m10.287-.977c-3.2,4.607-3.028,10.775-.53,15.647a20.3,20.3,0,0,0,1.416,2.364,11.229,11.229,0,0,0,1.648,2.058c.231.254.472.5.718.746l.189.187c.239.232.482.46.734.682l.03.026.007.007c.278.244.565.478.857.709l.195.152c.293.224.591.444.9.655l.026.02c.135.093.272.18.409.27l.194.128c.218.14.44.277.664.407l.094.055c.194.112.39.222.587.328l.209.109c.136.071.272.144.411.213l.062.028c.282.139.567.273.857.4l.189.078c.232.1.467.2.7.285l.3.11c.214.079.429.152.645.224l.292.094a7.142,7.142,0,0,0,.933.27c16.53,2.739,20.346-9.989,20.346-9.989-3.44,4.954-10.1,7.318-17.211,5.473-.316-.083-.627-.173-.936-.271l-.281-.091q-.33-.107-.655-.226l-.3-.11c-.238-.092-.472-.185-.7-.284l-.19-.08q-.438-.19-.862-.4c-.146-.071-.289-.146-.433-.22l-.25-.128c-.184-.1-.367-.2-.547-.309l-.131-.074q-.336-.2-.663-.4l-.2-.133c-.144-.093-.288-.188-.429-.284-.3-.21-.6-.43-.893-.653l-.2-.159a19.93,19.93,0,0,1-6.751-9.621A14.929,14.929,0,0,1,21.247,6.255m8.942-.311a9.633,9.633,0,0,0-.763,9.294A13.09,13.09,0,0,0,36.94,22.26c.136.05.273.1.41.142l.181.057a5.274,5.274,0,0,0,.589.17c9.127,1.764,11.6-4.684,12.262-5.633-2.168,3.122-5.813,3.872-10.284,2.786-.353-.085-.741-.213-1.082-.334a13.075,13.075,0,0,1-3.537-1.908C31.476,14.5,28.991,8.714,31.6,4" transform="translate(-1.714 -2.997)" fill="#0868ac"></path>
  </g>
</svg>
