<?xml version="1.0" encoding="UTF-8"?>
<svg xmlns="http://www.w3.org/2000/svg" xmlns:xlink="http://www.w3.org/1999/xlink" width="50" height="50" viewBox="0 0 50 50">
  <defs>
    <clipPath id="clip-laravel">
      <rect width="50" height="50"></rect>
    </clipPath>
  </defs>
  <g id="laravel" clip-path="url(#clip-laravel)">
    <path id="laravel-2" data-name="laravel" d="M49.8,16c-.357-.357-4.933-6.121-5.7-7.072-.832-.951-1.189-.772-1.722-.713s-6.3,1.07-6.953,1.129c-.654.119-1.07.357-.654.951.357.535,4.162,5.884,4.992,7.132L24.6,21.045,12.595.9C12.12.188,12-.05,10.931.009S1.481.782.887.782c-.594.06-1.249.3-.654,1.724s10.1,21.87,10.341,22.464a2.043,2.043,0,0,0,2.556,1.189c1.664-.416,7.369-1.9,10.519-2.734,1.664,2.971,4.992,9.033,5.646,9.925.832,1.189,1.426.951,2.674.594,1.01-.3,15.571-5.525,16.224-5.824s1.07-.475.594-1.129c-.357-.475-4.162-5.646-6.181-8.32,1.367-.357,6.3-1.664,6.834-1.842.594-.179.713-.475.357-.832ZM22.282,21.64c-.179.06-8.677,2.081-9.093,2.2-.475.119-.475.06-.475-.119-.119-.179-10.1-20.859-10.281-21.1-.119-.238-.119-.475,0-.475s8.023-.714,8.261-.714c.3,0,.238.06.357.238,0,0,11.113,19.195,11.292,19.493.238.3.119.416-.06.475ZM46.172,26.1c.119.238.3.357-.179.475-.416.179-14.323,4.873-14.62,4.992s-.475.179-.832-.357-4.873-8.32-4.873-8.32l14.8-3.863c.357-.119.475-.179.713.179.238.416,4.873,6.716,4.992,6.894Zm.951-10.46c-.357.06-5.765,1.426-5.765,1.426L36.9,11c-.119-.179-.238-.357.06-.416s5.349-.951,5.586-1.01.416-.119.713.3c.3.357,4.1,5.23,4.279,5.408s-.06.3-.416.357Z" transform="translate(0.001 7.999)" fill="#fb503b"></path>
  </g>
</svg>
