<?xml version="1.0" encoding="UTF-8"?>
<svg xmlns="http://www.w3.org/2000/svg" xmlns:xlink="http://www.w3.org/1999/xlink" width="50" height="50" viewBox="0 0 50 50">
  <defs>
    <clipPath id="clip-php">
      <rect width="50" height="50"></rect>
    </clipPath>
  </defs>
  <g id="php" clip-path="url(#clip-php)">
    <path id="php-2" data-name="php" d="M27.906,33.039c-13.807,0-25,5.672-25,12.669s11.193,12.669,25,12.669,25-5.672,25-12.669S41.713,33.039,27.906,33.039ZM21.4,48.177A4.887,4.887,0,0,1,19.412,49.2a9.793,9.793,0,0,1-2.787.189H14.066l-.709,4.092H10.369L13.035,39.57h5.745a4.787,4.787,0,0,1,3.782,1.4,4.317,4.317,0,0,1,.715,3.821A6.018,6.018,0,0,1,21.4,48.177Zm8.721,1.215,1.179-5.9a1.75,1.75,0,0,0-.148-1.455,2.057,2.057,0,0,0-1.487-.419H27.3l-1.527,7.775H22.8l2.666-13.5h2.964l-.709,3.683h2.641a5.116,5.116,0,0,1,3.438.913,2.6,2.6,0,0,1,.568,2.671l-1.24,6.237ZM46.6,44.817a5.961,5.961,0,0,1-1.876,3.36A4.89,4.89,0,0,1,42.731,49.2a9.8,9.8,0,0,1-2.788.189H37.385l-.709,4.092H33.688L36.354,39.57H42.1a4.785,4.785,0,0,1,3.781,1.4A4.366,4.366,0,0,1,46.6,44.817Zm-5.628-3.2H38.921l-1.116,5.729h1.818a4.436,4.436,0,0,0,2.691-.573,3.464,3.464,0,0,0,1.194-2.218,2.667,2.667,0,0,0-.27-2.233,3.034,3.034,0,0,0-2.27-.7Zm-23.319,0H15.6l-1.116,5.729H16.3a4.438,4.438,0,0,0,2.691-.573,3.464,3.464,0,0,0,1.194-2.218,2.667,2.667,0,0,0-.27-2.233,3.031,3.031,0,0,0-2.269-.7Z" transform="translate(-2.906 -21.039)" fill="#6181b6"></path>
  </g>
</svg>
