<?xml version="1.0" encoding="UTF-8"?>
<svg xmlns="http://www.w3.org/2000/svg" xmlns:xlink="http://www.w3.org/1999/xlink" width="50" height="50" viewBox="0 0 50 50">
  <defs>
    <clipPath id="clip-woocommerce">
      <rect width="50" height="50"></rect>
    </clipPath>
  </defs>
  <g id="woocommerce" clip-path="url(#clip-woocommerce)">
    <g id="woocommerce-2" data-name="woocommerce" transform="translate(0 10)">
      <path id="Path_42" data-name="Path 42" d="M4.641,0h40.7A4.659,4.659,0,0,1,50,4.661V20.2a4.659,4.659,0,0,1-4.661,4.661h-14.6l2,4.906-8.81-4.906H4.661A4.658,4.658,0,0,1,0,20.2V4.661A4.641,4.641,0,0,1,4.641,0Z" transform="translate(0)" fill="#9b5c8f"></path>
      <path id="Path_43" data-name="Path 43" d="M13.137,15.608a1.635,1.635,0,0,1,1.28-.63,1.485,1.485,0,0,1,1.768,1.463q.945,6.372,2.053,10.793l4.451-8.476a1.93,1.93,0,0,1,1.525-1.22c.894-.061,1.443.508,1.667,1.707A37.983,37.983,0,0,0,27.812,26.2q.793-7.744,2.683-11.179a1.561,1.561,0,0,1,1.341-.895,1.767,1.767,0,0,1,1.28.407,1.592,1.592,0,0,1,.63,1.159,1.765,1.765,0,0,1-.2.976A24.6,24.6,0,0,0,31.572,24,37.869,37.869,0,0,0,31,31.747a2.412,2.412,0,0,1-.244,1.341,1.31,1.31,0,0,1-1.077.732,2.043,2.043,0,0,1-1.606-.752,20.123,20.123,0,0,1-4.492-8.659q-1.982,3.9-2.927,5.854c-1.2,2.3-2.215,3.476-3.069,3.537-.549.041-1.016-.427-1.423-1.4Q14.611,28.4,12.812,16.97a1.73,1.73,0,0,1,.325-1.362ZM56.816,18.8a4.681,4.681,0,0,0-3.252-2.358,5.339,5.339,0,0,0-1.1-.122c-1.951,0-3.537,1.016-4.776,3.049A10.768,10.768,0,0,0,46.1,25.1a7.87,7.87,0,0,0,.976,4.024,4.681,4.681,0,0,0,3.252,2.358,5.325,5.325,0,0,0,1.1.122,5.435,5.435,0,0,0,4.776-3.049A10.892,10.892,0,0,0,57.791,22.8,7.5,7.5,0,0,0,56.816,18.8Zm-2.561,5.63a5.376,5.376,0,0,1-1.545,3.008,1.953,1.953,0,0,1-1.646.65c-.488-.1-.895-.528-1.2-1.321a5.153,5.153,0,0,1-.366-1.85,7.072,7.072,0,0,1,.142-1.484,6.575,6.575,0,0,1,1.077-2.419c.671-1,1.382-1.4,2.114-1.26.488.1.895.529,1.2,1.321a5.158,5.158,0,0,1,.366,1.85,7.133,7.133,0,0,1-.142,1.5ZM44.092,18.8a4.724,4.724,0,0,0-3.252-2.358,5.338,5.338,0,0,0-1.1-.122c-1.951,0-3.537,1.016-4.776,3.049A10.77,10.77,0,0,0,33.381,25.1a7.87,7.87,0,0,0,.976,4.024,4.681,4.681,0,0,0,3.252,2.358,5.326,5.326,0,0,0,1.1.122,5.435,5.435,0,0,0,4.776-3.049A10.89,10.89,0,0,0,45.068,22.8a7.69,7.69,0,0,0-.976-4Zm-2.581,5.63a5.377,5.377,0,0,1-1.545,3.008,1.954,1.954,0,0,1-1.646.65c-.488-.1-.894-.528-1.2-1.321a5.161,5.161,0,0,1-.366-1.85,7.072,7.072,0,0,1,.142-1.484,6.572,6.572,0,0,1,1.077-2.419c.671-1,1.382-1.4,2.114-1.26.488.1.895.529,1.2,1.321a5.153,5.153,0,0,1,.366,1.85,6,6,0,0,1-.142,1.5Z" transform="translate(-10.289 -11.36)" fill="#fff"></path>
    </g>
  </g>
</svg>
